<svg id="eGAC0wgeoQD1" xmlns="http://www.w3.org/2000/svg" viewBox="0 0 144 144" shape-rendering="geometricPrecision"
     text-rendering="geometricPrecision"><g><g transform="matrix(.690589 0 0 0.690589 22.277592 22.277592)"><circle id="eGAC0wgeoQD4" r="18" transform="matrix(1.000063 0 0 0.999999 72 72)" fill="#fff"/><g><path id="eGAC0wgeoQD6" d="M18,90c9.941125,0,18-8.058875,18-18c0-19.882251,16.117749-36,36-36h54c9.941125,0,18-8.058875,18-18s-8.058875-18-18-18h-54C32.253775,0.044089,0.044089,32.253775,0,72c0,9.941125,8.058875,18,18,18Z" transform="matrix(1.000056-.003317 0.003317 0.999994-.24286 0.239248)" fill="#fff"/><path id="eGAC0wgeoQD7" d="M126,54c-9.941125,0-18,8.058875-18,18c0,19.882251-16.117749,36-36,36h-54c-9.941125,0-18,8.058875-18,18s8.058875,18,18,18h54c39.746225-.044089,71.955911-32.253775,72-72c0-9.941125-8.058875-18-18-18Z" transform="matrix(1.000057-.003317 0.003317 0.999994-.332479 0.239451)" fill="#fff"/></g></g></g>
</svg>
