<svg id="Calque_1" data-name="Calque 1" xmlns="http://www.w3.org/2000/svg" viewBox="0 0 162 162">
  <defs>
    <style>.cls-1 {
      fill: #fff;
      fill-opacity: 0.05;
      stroke-width: 2;
      stroke-opacity: 0.7;
      stroke: #fff;
    }
    .cls-2 {
      fill: #fff;
    }
    </style>
  </defs>
  <circle class="cls-2" cx="81" cy="81" r="18"/>
  <path class="cls-1"
        d="M27,99A18,18,0,0,0,45,81,36,36,0,0,1,81,45h54a18,18,0,0,0,0-36H81A72.08,72.08,0,0,0,9,81,18,18,0,0,0,27,99Z"/>
  <path class="cls-1"
        d="M135,63a18,18,0,0,0-18,18,36,36,0,0,1-36,36H27a18,18,0,0,0,0,36H81a72.08,72.08,0,0,0,72-72A18,18,0,0,0,135,63Z"/>
</svg>
