<svg id="Calque_1" data-name="Calque 1" xmlns="http://www.w3.org/2000/svg" viewBox="0 0 162 162">
  <defs>
    <style>.cls-1 {
      fill: #000;
    }

    .cls-2 {
      fill: #000;
    }
    </style>
  </defs>
  <circle class="cls-2" cx="81" cy="81" r="18"/>
  <path class="cls-1"
        d="M27,99A18,18,0,0,0,45,81,36,36,0,0,1,81,45h54a18,18,0,0,0,0-36H81A72.08,72.08,0,0,0,9,81,18,18,0,0,0,27,99Z"/>
  <path class="cls-1"
        d="M135,63a18,18,0,0,0-18,18,36,36,0,0,1-36,36H27a18,18,0,0,0,0,36H81a72.08,72.08,0,0,0,72-72A18,18,0,0,0,135,63Z"/>
</svg>
