<svg xmlns="http://www.w3.org/2000/svg" viewBox="0 0 70 70">
  <defs>
    <style>
      .line {
        --length: 169.67;
        --percent: 50;
        fill: none;
        stroke: #F5A569;
        stroke-width: 10;
        stroke-dashoffset: -moz-calc(var(--length) * (1 - var(--percent) / 100));
        stroke-dashoffset: calc(var(--length) * (1 - var(--percent) / 100));
        stroke-dasharray: var(--length);
        transition: 1s ease-in-out;
      }

      .cls-3 {
        transition-delay: 0.1s;
        stroke: #E6E781;
      }

      .cls-4 {
        transition-delay: 0.2s;
        stroke: #6FC0A6;
      }

      .cls-5 {
        transition-delay: 0.3s;
        stroke: #3B7DC0;
      }

      .cls-6 {
        transition-delay: 0.4s;
        stroke: #fff;
      }

      .cls-1 {
        fill: none;
        stroke: #ffffff;
        opacity: 0.2;
        stroke-width: 5;
      }


      @keyframes dash {
        from {
          stroke-dashoffset: var(--length);
        }
        to {
          stroke-dashoffset: 0;
        }
      }


    </style>
  </defs>
  <g id="c2" data-name="c2">
    <g id="c1_2" data-name="c1">
      <path class="cls-1"
            d="M35,8h0A27,27,0,0,1,62,35h0A27,27,0,0,1,35,62h0A27,27,0,0,1,8,35H8A27,27,0,0,1,35,8h0"/>
      <path class="cls-2 line"
            d="M35,8h0A27,27,0,0,1,62,35h0A27,27,0,0,1,35,62h0A27,27,0,0,1,8,35H8A27,27,0,0,1,35,8h0"/>
      <path class="cls-3 line"
            d="M35,8h0A27,27,0,0,1,62,35h0A27,27,0,0,1,35,62h0A27,27,0,0,1,8,35H8A27,27,0,0,1,35,8h0"/>
      <path class="cls-4 line"
            d="M35,8h0A27,27,0,0,1,62,35h0A27,27,0,0,1,35,62h0A27,27,0,0,1,8,35H8A27,27,0,0,1,35,8h0"/>
      <path class="cls-5 line"
            d="M35,8h0A27,27,0,0,1,62,35h0A27,27,0,0,1,35,62h0A27,27,0,0,1,8,35H8A27,27,0,0,1,35,8h0"/>
      <path class="cls-6 line"
            d="M35,8h0A27,27,0,0,1,62,35h0A27,27,0,0,1,35,62h0A27,27,0,0,1,8,35H8A27,27,0,0,1,35,8h0"/>
      <circle r="18" cx="35" cy="35" fill="#F5A569"/>

    </g>
  </g>
</svg>
