<?xml version="1.0" encoding="utf-8"?>
<!-- Generator: Adobe Illustrator 26.0.1, SVG Export Plug-In . SVG Version: 6.00 Build 0)  -->
<svg version="1.1" id="Calque_1" xmlns="http://www.w3.org/2000/svg" xmlns:xlink="http://www.w3.org/1999/xlink" x="0px" y="0px"
	 viewBox="0 0 2565 2565" style="enable-background:new 0 0 2565 2565;" xml:space="preserve">
<style type="text/css">
	.st0{fill:#FFFFFF;}
	.st1{fill:none;stroke:#000000;stroke-width:2;stroke-miterlimit:10;}
</style>
<g>
	<g>
		<g>
			<path class="st0" d="M585,989c-54.5,0-107.4-10.7-157.3-31.7c-48.1-20.3-91.3-49.5-128.4-86.6c-37.1-37.1-66.2-80.3-86.6-128.4
				C191.7,692.4,181,639.5,181,585s10.7-107.4,31.7-157.3c20.3-48.1,49.5-91.3,86.6-128.4c37.1-37.1,80.3-66.2,128.4-86.6
				C477.6,191.7,530.5,181,585,181s107.4,10.7,157.3,31.7c48.1,20.3,91.3,49.5,128.4,86.6c37.1,37.1,66.2,80.3,86.6,128.4
				C978.3,477.6,989,530.5,989,585s-10.7,107.4-31.7,157.3c-20.3,48.1-49.5,91.3-86.6,128.4c-37.1,37.1-80.3,66.2-128.4,86.6
				C692.4,978.3,639.5,989,585,989z"/>
			<path d="M585,182c54.4,0,107.2,10.7,156.9,31.7C789.9,234,833,263,870,300c37,37,66.1,80.1,86.4,128.1
				c21,49.7,31.7,102.5,31.7,156.9c0,54.4-10.7,107.2-31.7,156.9C936,789.9,907,833,870,870c-37,37-80.1,66.1-128.1,86.4
				C692.2,977.3,639.4,988,585,988s-107.2-10.7-156.9-31.7C380.1,936,337,907,300,870c-37-37-66.1-80.1-86.4-128.1
				C192.7,692.2,182,639.4,182,585c0-54.4,10.7-107.2,31.7-156.9C234,380.1,263,337,300,300s80.1-66.1,128.1-86.4
				C477.8,192.7,530.6,182,585,182 M585,180c-223.7,0-405,181.3-405,405s181.3,405,405,405s405-181.3,405-405S808.7,180,585,180
				L585,180z"/>
		</g>
		<g>
			<path class="st0" d="M585,899c-83.9,0-162.7-32.7-222-92c-59.3-59.3-92-138.2-92-222c0-83.9,32.7-162.7,92-222
				c59.3-59.3,138.2-92,222-92s162.7,32.7,222,92c59.3,59.3,92,138.2,92,222c0,83.9-32.7,162.7-92,222
				C747.7,866.3,668.9,899,585,899z"/>
			<path d="M585,272c42.3,0,83.2,8.3,121.8,24.6c37.3,15.8,70.7,38.3,99.5,67.1c28.7,28.7,51.3,62.2,67.1,99.5
				C889.7,501.8,898,542.7,898,585c0,42.3-8.3,83.2-24.6,121.8c-15.8,37.3-38.3,70.7-67.1,99.5c-28.7,28.7-62.2,51.3-99.5,67.1
				C668.2,889.7,627.3,898,585,898c-42.3,0-83.2-8.3-121.8-24.6c-37.3-15.8-70.7-38.3-99.5-67.1c-28.7-28.7-51.3-62.2-67.1-99.5
				C280.3,668.2,272,627.3,272,585c0-42.3,8.3-83.2,24.6-121.8c15.8-37.3,38.3-70.7,67.1-99.5c28.7-28.7,62.2-51.3,99.5-67.1
				C501.8,280.3,542.7,272,585,272 M585,270c-174,0-315,141-315,315s141,315,315,315s315-141,315-315S759,270,585,270L585,270z"/>
		</g>
		<circle cx="585" cy="585" r="225"/>
		<circle class="st0" cx="585" cy="585" r="135"/>
		<circle cx="585" cy="585" r="45"/>
		<g>
			<line class="st1" x1="90" y1="585" x2="1080" y2="585"/>
		</g>
		<line class="st1" x1="585" y1="1080" x2="585" y2="90"/>
	</g>
	<g>
		<g>
			<path class="st0" d="M1980,989c-54.5,0-107.4-10.7-157.3-31.7c-48.1-20.3-91.3-49.5-128.4-86.6c-37.1-37.1-66.2-80.3-86.6-128.4
				c-21.1-49.8-31.7-102.7-31.7-157.3s10.7-107.4,31.7-157.3c20.3-48.1,49.5-91.3,86.6-128.4c37.1-37.1,80.3-66.2,128.4-86.6
				c49.8-21.1,102.7-31.7,157.3-31.7s107.4,10.7,157.3,31.7c48.1,20.3,91.3,49.5,128.4,86.6c37.1,37.1,66.2,80.3,86.6,128.4
				c21.1,49.8,31.7,102.7,31.7,157.3s-10.7,107.4-31.7,157.3c-20.3,48.1-49.5,91.3-86.6,128.4c-37.1,37.1-80.3,66.2-128.4,86.6
				C2087.4,978.3,2034.5,989,1980,989z"/>
			<path d="M1980,182c54.4,0,107.2,10.7,156.9,31.7c48,20.3,91.1,49.4,128.1,86.4c37,37,66.1,80.1,86.4,128.1
				c21,49.7,31.7,102.5,31.7,156.9c0,54.4-10.7,107.2-31.7,156.9C2331,789.9,2302,833,2265,870c-37,37-80.1,66.1-128.1,86.4
				c-49.7,21-102.5,31.7-156.9,31.7s-107.2-10.7-156.9-31.7C1775.1,936,1732,907,1695,870c-37-37-66.1-80.1-86.4-128.1
				c-21-49.7-31.7-102.5-31.7-156.9c0-54.4,10.7-107.2,31.7-156.9c20.3-48,49.4-91.1,86.4-128.1s80.1-66.1,128.1-86.4
				C1872.8,192.7,1925.6,182,1980,182 M1980,180c-223.7,0-405,181.3-405,405s181.3,405,405,405s405-181.3,405-405
				S2203.7,180,1980,180L1980,180z"/>
		</g>
		<g>
			<path class="st0" d="M1980,899c-83.9,0-162.7-32.7-222-92c-59.3-59.3-92-138.2-92-222c0-83.9,32.7-162.7,92-222
				c59.3-59.3,138.2-92,222-92s162.7,32.7,222,92c59.3,59.3,92,138.2,92,222c0,83.9-32.7,162.7-92,222
				C2142.7,866.3,2063.9,899,1980,899z"/>
			<path d="M1980,272c42.3,0,83.2,8.3,121.8,24.6c37.3,15.8,70.7,38.3,99.5,67.1c28.7,28.7,51.3,62.2,67.1,99.5
				c16.3,38.6,24.6,79.6,24.6,121.8c0,42.3-8.3,83.2-24.6,121.8c-15.8,37.3-38.3,70.7-67.1,99.5c-28.7,28.7-62.2,51.3-99.5,67.1
				c-38.6,16.3-79.6,24.6-121.8,24.6s-83.2-8.3-121.8-24.6c-37.3-15.8-70.7-38.3-99.5-67.1c-28.7-28.7-51.3-62.2-67.1-99.5
				c-16.3-38.6-24.6-79.6-24.6-121.8c0-42.3,8.3-83.2,24.6-121.8c15.8-37.3,38.3-70.7,67.1-99.5c28.7-28.7,62.2-51.3,99.5-67.1
				C1896.8,280.3,1937.7,272,1980,272 M1980,270c-174,0-315,141-315,315s141,315,315,315s315-141,315-315S2154,270,1980,270
				L1980,270z"/>
		</g>
		<circle cx="1980" cy="585" r="225"/>
		<circle class="st0" cx="1980" cy="585" r="135"/>
		<circle cx="1980" cy="585" r="45"/>
		<g>
			<line class="st1" x1="1485" y1="585" x2="2475" y2="585"/>
		</g>
		<line class="st1" x1="1980" y1="1080" x2="1980" y2="90"/>
	</g>
	<g>
		<g>
			<path class="st0" d="M1980,2384c-54.5,0-107.4-10.7-157.3-31.7c-48.1-20.3-91.3-49.5-128.4-86.6c-37.1-37.1-66.2-80.3-86.6-128.4
				c-21.1-49.8-31.7-102.7-31.7-157.3s10.7-107.4,31.7-157.3c20.3-48.1,49.5-91.3,86.6-128.4c37.1-37.1,80.3-66.2,128.4-86.6
				c49.8-21.1,102.7-31.7,157.3-31.7s107.4,10.7,157.3,31.7c48.1,20.3,91.3,49.5,128.4,86.6c37.1,37.1,66.2,80.3,86.6,128.4
				c21.1,49.8,31.7,102.7,31.7,157.3s-10.7,107.4-31.7,157.3c-20.3,48.1-49.5,91.3-86.6,128.4c-37.1,37.1-80.3,66.2-128.4,86.6
				C2087.4,2373.3,2034.5,2384,1980,2384z"/>
			<path d="M1980,1577c54.4,0,107.2,10.7,156.9,31.7c48,20.3,91.1,49.4,128.1,86.4c37,37,66.1,80.1,86.4,128.1
				c21,49.7,31.7,102.5,31.7,156.9s-10.7,107.2-31.7,156.9c-20.3,48-49.4,91.1-86.4,128.1c-37,37-80.1,66.1-128.1,86.4
				c-49.7,21-102.5,31.7-156.9,31.7s-107.2-10.7-156.9-31.7c-48-20.3-91.1-49.4-128.1-86.4s-66.1-80.1-86.4-128.1
				c-21-49.7-31.7-102.5-31.7-156.9s10.7-107.2,31.7-156.9c20.3-48,49.4-91.1,86.4-128.1s80.1-66.1,128.1-86.4
				C1872.8,1587.7,1925.6,1577,1980,1577 M1980,1575c-223.7,0-405,181.3-405,405s181.3,405,405,405s405-181.3,405-405
				S2203.7,1575,1980,1575L1980,1575z"/>
		</g>
		<g>
			<path class="st0" d="M1980,2294c-83.9,0-162.7-32.7-222-92s-92-138.2-92-222c0-83.9,32.7-162.7,92-222s138.2-92,222-92
				s162.7,32.7,222,92s92,138.2,92,222c0,83.9-32.7,162.7-92,222S2063.9,2294,1980,2294z"/>
			<path d="M1980,1667c42.3,0,83.2,8.3,121.8,24.6c37.3,15.8,70.7,38.3,99.5,67.1c28.7,28.7,51.3,62.2,67.1,99.5
				c16.3,38.6,24.6,79.6,24.6,121.8s-8.3,83.2-24.6,121.8c-15.8,37.3-38.3,70.7-67.1,99.5c-28.7,28.7-62.2,51.3-99.5,67.1
				c-38.6,16.3-79.6,24.6-121.8,24.6s-83.2-8.3-121.8-24.6c-37.3-15.8-70.7-38.3-99.5-67.1c-28.7-28.7-51.3-62.2-67.1-99.5
				c-16.3-38.6-24.6-79.6-24.6-121.8s8.3-83.2,24.6-121.8c15.8-37.3,38.3-70.7,67.1-99.5c28.7-28.7,62.2-51.3,99.5-67.1
				C1896.8,1675.3,1937.7,1667,1980,1667 M1980,1665c-174,0-315,141-315,315s141,315,315,315s315-141,315-315S2154,1665,1980,1665
				L1980,1665z"/>
		</g>
		<circle cx="1980" cy="1980" r="225"/>
		<circle class="st0" cx="1980" cy="1980" r="135"/>
		<circle cx="1980" cy="1980" r="45"/>
		<g>
			<line class="st1" x1="1485" y1="1980" x2="2475" y2="1980"/>
		</g>
		<line class="st1" x1="1980" y1="2475" x2="1980" y2="1485"/>
	</g>
	<g>
		<g>
			<path class="st0" d="M585,2384c-54.5,0-107.4-10.7-157.3-31.7c-48.1-20.3-91.3-49.5-128.4-86.6c-37.1-37.1-66.2-80.3-86.6-128.4
				c-21.1-49.8-31.7-102.7-31.7-157.3s10.7-107.4,31.7-157.3c20.3-48.1,49.5-91.3,86.6-128.4c37.1-37.1,80.3-66.2,128.4-86.6
				c49.8-21.1,102.7-31.7,157.3-31.7s107.4,10.7,157.3,31.7c48.1,20.3,91.3,49.5,128.4,86.6c37.1,37.1,66.2,80.3,86.6,128.4
				c21.1,49.8,31.7,102.7,31.7,157.3s-10.7,107.4-31.7,157.3c-20.3,48.1-49.5,91.3-86.6,128.4c-37.1,37.1-80.3,66.2-128.4,86.6
				C692.4,2373.3,639.5,2384,585,2384z"/>
			<path d="M585,1577c54.4,0,107.2,10.7,156.9,31.7c48,20.3,91.1,49.4,128.1,86.4c37,37,66.1,80.1,86.4,128.1
				c21,49.7,31.7,102.5,31.7,156.9s-10.7,107.2-31.7,156.9C936,2184.9,907,2228,870,2265c-37,37-80.1,66.1-128.1,86.4
				c-49.7,21-102.5,31.7-156.9,31.7s-107.2-10.7-156.9-31.7C380.1,2331,337,2302,300,2265s-66.1-80.1-86.4-128.1
				c-21-49.7-31.7-102.5-31.7-156.9s10.7-107.2,31.7-156.9c20.3-48,49.4-91.1,86.4-128.1s80.1-66.1,128.1-86.4
				C477.8,1587.7,530.6,1577,585,1577 M585,1575c-223.7,0-405,181.3-405,405s181.3,405,405,405s405-181.3,405-405
				S808.7,1575,585,1575L585,1575z"/>
		</g>
		<g>
			<path class="st0" d="M585,2294c-83.9,0-162.7-32.7-222-92c-59.3-59.3-92-138.2-92-222c0-83.9,32.7-162.7,92-222
				c59.3-59.3,138.2-92,222-92s162.7,32.7,222,92c59.3,59.3,92,138.2,92,222c0,83.9-32.7,162.7-92,222
				C747.7,2261.3,668.9,2294,585,2294z"/>
			<path d="M585,1667c42.3,0,83.2,8.3,121.8,24.6c37.3,15.8,70.7,38.3,99.5,67.1c28.7,28.7,51.3,62.2,67.1,99.5
				c16.3,38.6,24.6,79.6,24.6,121.8s-8.3,83.2-24.6,121.8c-15.8,37.3-38.3,70.7-67.1,99.5c-28.7,28.7-62.2,51.3-99.5,67.1
				c-38.6,16.3-79.6,24.6-121.8,24.6c-42.3,0-83.2-8.3-121.8-24.6c-37.3-15.8-70.7-38.3-99.5-67.1c-28.7-28.7-51.3-62.2-67.1-99.5
				c-16.3-38.6-24.6-79.6-24.6-121.8s8.3-83.2,24.6-121.8c15.8-37.3,38.3-70.7,67.1-99.5c28.7-28.7,62.2-51.3,99.5-67.1
				C501.8,1675.3,542.7,1667,585,1667 M585,1665c-174,0-315,141-315,315s141,315,315,315s315-141,315-315S759,1665,585,1665
				L585,1665z"/>
		</g>
		<circle cx="585" cy="1980" r="225"/>
		<circle class="st0" cx="585" cy="1980" r="135"/>
		<circle cx="585" cy="1980" r="45"/>
		<g>
			<line class="st1" x1="90" y1="1980" x2="1080" y2="1980"/>
		</g>
		<line class="st1" x1="585" y1="2475" x2="585" y2="1485"/>
	</g>
	<g>
		<g>
			<path class="st0" d="M1282.5,1686.5c-54.5,0-107.4-10.7-157.3-31.7c-48.1-20.3-91.3-49.5-128.4-86.6
				c-37.1-37.1-66.2-80.3-86.6-128.4c-21.1-49.8-31.7-102.7-31.7-157.3s10.7-107.4,31.7-157.3c20.3-48.1,49.5-91.3,86.6-128.4
				c37.1-37.1,80.3-66.2,128.4-86.6c49.8-21.1,102.7-31.7,157.3-31.7s107.4,10.7,157.3,31.7c48.1,20.3,91.3,49.5,128.4,86.6
				c37.1,37.1,66.2,80.3,86.6,128.4c21.1,49.8,31.7,102.7,31.7,157.3s-10.7,107.4-31.7,157.3c-20.3,48.1-49.5,91.3-86.6,128.4
				c-37.1,37.1-80.3,66.2-128.4,86.6C1389.9,1675.8,1337,1686.5,1282.5,1686.5z"/>
			<path d="M1282.5,879.5c54.4,0,107.2,10.7,156.9,31.7c48,20.3,91.1,49.4,128.1,86.4c37,37,66.1,80.1,86.4,128.1
				c21,49.7,31.7,102.5,31.7,156.9c0,54.4-10.7,107.2-31.7,156.9c-20.3,48-49.4,91.1-86.4,128.1c-37,37-80.1,66.1-128.1,86.4
				c-49.7,21-102.5,31.7-156.9,31.7s-107.2-10.7-156.9-31.7c-48-20.3-91.1-49.4-128.1-86.4s-66.1-80.1-86.4-128.1
				c-21-49.7-31.7-102.5-31.7-156.9c0-54.4,10.7-107.2,31.7-156.9c20.3-48,49.4-91.1,86.4-128.1c37-37,80.1-66.1,128.1-86.4
				C1175.3,890.2,1228.1,879.5,1282.5,879.5 M1282.5,877.5c-223.7,0-405,181.3-405,405s181.3,405,405,405s405-181.3,405-405
				S1506.2,877.5,1282.5,877.5L1282.5,877.5z"/>
		</g>
		<g>
			<path class="st0" d="M1282.5,1596.5c-83.9,0-162.7-32.7-222-92c-59.3-59.3-92-138.2-92-222s32.7-162.7,92-222
				c59.3-59.3,138.2-92,222-92s162.7,32.7,222,92c59.3,59.3,92,138.2,92,222s-32.7,162.7-92,222S1366.4,1596.5,1282.5,1596.5z"/>
			<path d="M1282.5,969.5c42.3,0,83.2,8.3,121.8,24.6c37.3,15.8,70.7,38.3,99.5,67.1c28.7,28.7,51.3,62.2,67.1,99.5
				c16.3,38.6,24.6,79.6,24.6,121.8s-8.3,83.2-24.6,121.8c-15.8,37.3-38.3,70.7-67.1,99.5c-28.7,28.7-62.2,51.3-99.5,67.1
				c-38.6,16.3-79.6,24.6-121.8,24.6s-83.2-8.3-121.8-24.6c-37.3-15.8-70.7-38.3-99.5-67.1c-28.7-28.7-51.3-62.2-67.1-99.5
				c-16.3-38.6-24.6-79.6-24.6-121.8s8.3-83.2,24.6-121.8c15.8-37.3,38.3-70.7,67.1-99.5c28.7-28.7,62.2-51.3,99.5-67.1
				C1199.3,977.8,1240.2,969.5,1282.5,969.5 M1282.5,967.5c-174,0-315,141-315,315s141,315,315,315s315-141,315-315
				S1456.5,967.5,1282.5,967.5L1282.5,967.5z"/>
		</g>
		<circle cx="1282.5" cy="1282.5" r="225"/>
		<circle class="st0" cx="1282.5" cy="1282.5" r="135"/>
		<circle cx="1282.5" cy="1282.5" r="45"/>
		<g>
			<line class="st1" x1="787.5" y1="1282.5" x2="1777.5" y2="1282.5"/>
		</g>
		<line class="st1" x1="1282.5" y1="1777.5" x2="1282.5" y2="787.5"/>
	</g>
</g>
</svg>
