<svg xmlns="http://www.w3.org/2000/svg" xmlns:xlink="http://www.w3.org/1999/xlink" viewBox="0 0 126 126"><defs><style>.cls-1{fill:url(#Dégradé_sans_nom_2);}.cls-2{opacity:0.15;}.cls-3{fill:url(#Dégradé_sans_nom_9);}.cls-4{fill:#fff;}</style><radialGradient id="Dégradé_sans_nom_2" cx="62.8" cy="63.82" fx="-36.87000736970545" fy="-36.40172406197725" r="141.34" gradientUnits="userSpaceOnUse"><stop offset="0.06" stop-color="#43e3ff"/><stop offset="0.94" stop-color="#0035ff"/></radialGradient><radialGradient id="Dégradé_sans_nom_9" cx="78.46" cy="78.77" r="46.4" gradientUnits="userSpaceOnUse"><stop offset="0"/><stop offset="1" stop-opacity="0.5"/></radialGradient></defs><title>Fichier 5</title><g id="Calque_2" data-name="Calque 2"><g id="Calque_1-2" data-name="Calque 1"><rect class="cls-1" width="126" height="126" rx="63"/><g class="cls-2"><path class="cls-3" d="M125,74.12A63,63,0,0,1,74.12,125L37.55,88.45,31.91,50.3,50.62,36,64,32.53l24.45,5Z"/></g><path class="cls-4" d="M63,45A18,18,0,1,0,81,63,18,18,0,0,0,63,45Zm0,27a9,9,0,1,1,9-9A9,9,0,0,1,63,72Z"/><path class="cls-4" d="M103.5,58.5H98.72A36,36,0,0,0,67.5,27.28V22.5a4.5,4.5,0,0,0-9,0v4.78A36,36,0,0,0,27.28,58.5H22.5a4.5,4.5,0,0,0,0,9h4.78A36,36,0,0,0,58.5,98.72v4.78a4.5,4.5,0,0,0,9,0V98.72A36,36,0,0,0,98.72,67.5h4.78a4.5,4.5,0,0,0,0-9Zm-13.88,9A27,27,0,0,1,67.48,89.62a26.6,26.6,0,0,1-9,0A27,27,0,0,1,36.38,67.48a26.6,26.6,0,0,1,0-9A27,27,0,0,1,58.52,36.38a26.6,26.6,0,0,1,9,0A27,27,0,0,1,89.62,58.52a26.6,26.6,0,0,1,0,9Z"/></g></g></svg>